<svg width="40" height="40" fill="none" xmlns="http://www.w3.org/2000/svg"><path fill-rule="evenodd" clip-rule="evenodd" d="M5.955 14.964c.187.079.42.079.888.079h.689c.45 0 .814-.365.814-.815 0-1.125 0-1.688.219-2.118.193-.378.5-.685.878-.878.43-.219.992-.219 2.118-.219h17.783c1.126 0 1.688 0 2.118.22.378.192.686.5.878.877.22.43.22.993.22 2.118v12.124c0 1.125 0 1.688-.22 2.118-.192.378-.5.685-.878.878-.43.219-.992.219-2.118.219h-4.836c-.468 0-.702 0-.886.076a1.005 1.005 0 0 0-.544.544c-.077.185-.077.419-.077.886 0 .468 0 .702.077.886.102.247.297.443.544.545.184.076.418.076.886.076h3.027c2.813 0 4.22 0 5.294-.547a5.024 5.024 0 0 0 2.196-2.196c.547-1.075.547-2.481.547-5.295v-8.504c0-2.814 0-4.22-.547-5.295a5.024 5.024 0 0 0-2.196-2.195C31.755 8 30.35 8 27.535 8H13.37c-2.814 0-4.22 0-5.295.548a5.024 5.024 0 0 0-2.195 2.195c-.354.695-.48 1.528-.524 2.79-.016.449-.023.672.049.862.095.252.301.465.55.569zm14.386 16.633c.025.545-.425.983-.972.983h-1.003c-.566 0-1.016-.468-1.05-1.032a11.573 11.573 0 0 0-3.381-7.5 11.574 11.574 0 0 0-7.564-3.385c-.567-.032-1.038-.483-1.038-1.05V18.61c0-.545.434-.994.978-.972a14.583 14.583 0 0 1 9.758 4.275 14.582 14.582 0 0 1 4.272 9.684zm-6.106.015c.04.54-.41.968-.95.968h-.99c-.577 0-1.027-.49-1.104-1.062a5.497 5.497 0 0 0-1.567-3.16 5.497 5.497 0 0 0-3.216-1.575c-.577-.072-1.075-.524-1.075-1.106v-.986c0-.537.424-.986.96-.95 1.99.133 3.944.96 5.465 2.482a8.505 8.505 0 0 1 2.477 5.39z" fill="#fff"/></svg>