<svg width="40" height="40" fill="none" xmlns="http://www.w3.org/2000/svg"><path fill-rule="evenodd" clip-rule="evenodd" d="M24.856 7.294c.308.259.538.617.998 1.332l1.024 1.592c.2.31.3.465.429.583.158.144.348.248.555.303.168.044.353.044.722.044 1.942 0 2.913 0 3.674.33a4 4 0 0 1 2.08 2.08c.33.76.33 1.732.33 3.674v9.703c0 2.24 0 3.36-.437 4.215a4 4 0 0 1-1.748 1.748c-.855.436-1.976.436-4.216.436H10.4c-2.24 0-3.36 0-4.215-.436a4 4 0 0 1-1.749-1.748C4 30.295 4 29.175 4 26.935V17.26c0-1.97 0-2.954.34-3.725a4 4 0 0 1 2.048-2.048c.77-.34 1.756-.34 3.725-.34.374 0 .561 0 .732-.046.203-.055.39-.157.547-.298.13-.119.232-.276.434-.59l1.022-1.588c.46-.715.69-1.073.998-1.332.273-.229.589-.401.93-.507.384-.119.81-.119 1.66-.119h5.83c.85 0 1.276 0 1.66.119.34.105.657.277.93.507zm-5.522 22.04a8 8 0 1 0 0-16 8 8 0 0 0 0 16zm5.333-8a5.333 5.333 0 1 1-10.667 0 5.333 5.333 0 0 1 10.667 0zm7.916 4.948c-.227.029-.492.295-1.024.826L30 28.668l-1.559 1.558c-.531.532-.797.798-.826 1.024a.667.667 0 0 0 .253.611c.18.14.556.14 1.308.14 1.39 0 2.086 0 2.624-.253a2.667 2.667 0 0 0 1.28-1.28c.254-.539.254-1.234.254-2.625 0-.752 0-1.127-.14-1.308a.667.667 0 0 0-.611-.253z" fill="#fff"/></svg>